<svg version="1.1" viewBox="0.0 0.0 377.9527559055118 377.9527559055118" fill="none" stroke="none" stroke-linecap="square" stroke-miterlimit="10" xmlns:xlink="http://www.w3.org/1999/xlink" xmlns="http://www.w3.org/2000/svg"><clipPath id="p.0"><path d="m0 0l377.95276 0l0 377.95276l-377.95276 0l0 -377.95276z" clip-rule="nonzero"/></clipPath><g clip-path="url(#p.0)"><path fill="#000000" fill-opacity="0.0" d="m0 0l377.95276 0l0 377.95276l-377.95276 0z" fill-rule="evenodd"/><path fill="#cc4125" d="m0 188.97638l0 0c0 -104.368774 84.607605 -188.97638 188.97638 -188.97638l0 0c50.119644 0 98.18652 19.909954 133.62646 55.3499c35.439972 35.43995 55.349915 83.50682 55.349915 133.62648l0 0c0 104.368774 -84.607605 188.97638 -188.97638 188.97638l0 0c-104.368774 0 -188.97638 -84.607605 -188.97638 -188.97638z" fill-rule="evenodd"/><path fill="#a61c00" d="m55.199474 106.65354l0 0c0 -19.334312 16.131847 -35.007874 36.031498 -35.007874l0 0c9.556145 0 18.720901 3.688324 25.478111 10.253571c6.7572174 6.5652466 10.553383 15.469643 10.553383 24.754303l0 0c0 19.33432 -16.131851 35.00788 -36.031494 35.00788l0 0c-19.89965 0 -36.031498 -15.673561 -36.031498 -35.00788z" fill-rule="evenodd"/><path fill="#a61c00" d="m276.4908 195.1181l0 0c0 -19.334305 16.131836 -35.007874 36.031494 -35.007874l0 0c9.556152 0 18.720886 3.688324 25.478119 10.253571c6.757202 6.565262 10.553375 15.46965 10.553375 24.754303l0 0c0 19.33432 -16.131836 35.00789 -36.031494 35.00789l0 0c-19.899658 0 -36.031494 -15.673569 -36.031494 -35.00789z" fill-rule="evenodd"/><path fill="#a61c00" d="m157.02887 318.7953l0 0c0 -19.33432 16.131851 -35.007874 36.031494 -35.007874l0 0c9.556152 0 18.720901 3.6882935 25.478119 10.253571c6.7572174 6.5652466 10.553375 15.469635 10.553375 24.754303l0 0c0 19.33429 -16.131851 35.007874 -36.031494 35.007874l0 0c-19.899643 0 -36.031494 -15.673584 -36.031494 -35.007874z" fill-rule="evenodd"/><path fill="#a61c00" d="m147.66142 191.82152l0 0c0 -14.185455 11.407913 -25.685028 25.480316 -25.685028l0 0c6.7577972 0 13.238815 2.7060852 18.017303 7.5229645c4.778473 4.8168793 7.4629974 11.349976 7.4629974 18.162064l0 0c0 14.185455 -11.407913 25.685043 -25.4803 25.685043l0 0c-14.072403 0 -25.480316 -11.499588 -25.480316 -25.685043z" fill-rule="evenodd"/><path fill="#a61c00" d="m251.36351 79.21785l0 0c0 -13.341812 10.279831 -24.157482 22.960648 -24.157482l0 0c6.0895386 0 11.929657 2.5451546 16.235596 7.0755615c4.305969 4.530407 6.7250366 10.674953 6.7250366 17.08192l0 0c0 13.3418045 -10.279846 24.157478 -22.960632 24.157478l0 0c-12.680817 0 -22.960648 -10.815674 -22.960648 -24.157478z" fill-rule="evenodd"/><path fill="#a61c00" d="m36.84261 248.87138l0 0c0 -16.559845 13.085976 -29.984238 29.228344 -29.984238l0 0c7.7518387 0 15.186188 3.1590424 20.667564 8.782181c5.4813766 5.6231384 8.560783 13.249741 8.560783 21.202057l0 0c0 16.55986 -13.085976 29.984268 -29.228348 29.984268l0 0c-16.142368 0 -29.228344 -13.424408 -29.228344 -29.984268z" fill-rule="evenodd"/></g></svg>