<svg version="1.1" viewBox="0.0 0.0 377.9527559055118 377.9527559055118" fill="none" stroke="none" stroke-linecap="square" stroke-miterlimit="10" xmlns:xlink="http://www.w3.org/1999/xlink" xmlns="http://www.w3.org/2000/svg"><clipPath id="p.0"><path d="m0 0l377.95276 0l0 377.95276l-377.95276 0l0 -377.95276z" clip-rule="nonzero"/></clipPath><g clip-path="url(#p.0)"><path fill="#000000" fill-opacity="0.0" d="m0 0l377.95276 0l0 377.95276l-377.95276 0z" fill-rule="evenodd"/><path fill="#ea9999" d="m0 117.90551l238.61417 0l0 142.14172l-238.61417 0z" fill-rule="evenodd"/><path fill="#ea9999" d="m377.40945 188.91077l0 0l0 0c0 18.840805 -7.484497 36.909943 -20.806946 50.23242c-13.322479 13.322464 -31.391632 20.806946 -50.23242 20.806946l-94.50395 0c-6.4086914E-4 0 -0.0011749268 -5.187988E-4 -0.0011749268 -0.0011901855l0.0011749268 -142.07755l0 0c0 -6.5612793E-4 5.340576E-4 -0.0011825562 0.0011901855 -0.0011825562l94.50276 0.0011825562l0 0c39.233948 0 71.03937 31.805412 71.03937 71.039375z" fill-rule="evenodd"/><path fill="#ea9999" d="m51.669292 142.07874l0 -142.07874l274.6142 142.07874z" fill-rule="evenodd"/><path fill="#ea9999" d="m51.669292 235.87273l0 142.07875l274.6142 -142.07875z" fill-rule="evenodd"/><path fill="#4a86e8" d="m281.55905 188.97638l0 0c0 -18.960327 15.0672 -34.330704 33.653534 -34.330704l0 0c8.925476 0 17.485413 3.6169739 23.796661 10.055222c6.311249 6.438263 9.856903 15.17041 9.856903 24.275482l0 0c0 18.960327 -15.0672 34.330704 -33.653564 34.330704l0 0c-18.586334 0 -33.653534 -15.370377 -33.653534 -34.330704z" fill-rule="evenodd"/><path fill="#4a86e8" d="m188.97638 188.97638l0 0c0 -18.960327 15.0672 -34.330704 33.65355 -34.330704l0 0c8.925461 0 17.485382 3.6169739 23.796646 10.055222c6.311264 6.438263 9.856903 15.17041 9.856903 24.275482l0 0c0 18.960327 -15.067215 34.330704 -33.65355 34.330704l0 0c-18.58635 0 -33.65355 -15.370377 -33.65355 -34.330704z" fill-rule="evenodd"/><path fill="#4a86e8" d="m96.3937 188.97638l0 0c0 -18.960327 15.067207 -34.330704 33.65354 -34.330704l0 0c8.925476 0 17.485382 3.6169739 23.796646 10.055222c6.311264 6.438263 9.856903 15.17041 9.856903 24.275482l0 0c0 18.960327 -15.067215 34.330704 -33.65355 34.330704l0 0c-18.586334 0 -33.65354 -15.370377 -33.65354 -34.330704z" fill-rule="evenodd"/><path fill="#e69138" d="m0 117.79527l51.68504 0l0 142.14174l-51.68504 0z" fill-rule="evenodd"/></g></svg>