<svg version="1.1" viewBox="0.0 0.0 377.9527559055118 377.9527559055118" fill="none" stroke="none" stroke-linecap="square" stroke-miterlimit="10" xmlns:xlink="http://www.w3.org/1999/xlink" xmlns="http://www.w3.org/2000/svg"><clipPath id="p.0"><path d="m0 0l377.95276 0l0 377.95276l-377.95276 0l0 -377.95276z" clip-rule="nonzero"/></clipPath><g clip-path="url(#p.0)"><path fill="#000000" fill-opacity="0.0" d="m0 0l377.95276 0l0 377.95276l-377.95276 0z" fill-rule="evenodd"/><path fill="#7bbbff" d="m46.5 86.44357l0 0c0 -21.311523 17.276402 -38.58793 38.58793 -38.58793l15.690285 0l0 0l81.41733 0l151.38582 0c10.234161 0 20.049164 4.065502 27.285797 11.302139c7.2366333 7.236641 11.302124 17.051628 11.302124 27.28579l0 96.46982l0 0l0 57.88188l0 0c0 21.311539 -17.276398 38.587936 -38.58792 38.587936l-151.38582 0l-78.35495 55.856018l-3.062378 -55.856018l-15.690285 0l0 0c-21.311527 0 -38.58793 -17.276398 -38.58793 -38.587936l0 0l0 -57.88188l0 0z" fill-rule="evenodd"/><path fill="#51a6ff" d="m25.783464 106.44357l0 0c0 -21.311523 17.276403 -38.58793 38.58793 -38.58793l15.690285 0l0 0l81.41733 0l151.38583 0c10.234161 0 20.049133 4.0654984 27.285767 11.302139c7.236664 7.236641 11.302155 17.051628 11.302155 27.28579l0 96.46982l0 0l0 57.881897l0 0c0 21.311523 -17.276398 38.58792 -38.58792 38.58792l-151.38583 0l-78.35495 55.856018l-3.062378 -55.856018l-15.690285 0l0 0c-21.311523 0 -38.58793 -17.276398 -38.58793 -38.58792l0 0l0 -57.881897l0 0z" fill-rule="evenodd"/><path fill="#228eff" d="m5.069554 133.5853l0 0c0 -21.311516 17.276403 -38.58792 38.58793 -38.58792l15.690289 0l0 0l81.41732 0l151.38582 0c10.234161 0 20.049164 4.0654984 27.285797 11.302139c7.2366333 7.236641 11.302124 17.051636 11.302124 27.285782l0 96.46982l0 0l0 57.881897l0 0c0 21.311523 -17.276398 38.58792 -38.58792 38.58792l-151.38582 0l-82.76451 40.760437l1.347187 -40.760437l-15.690289 0l0 0c-21.311525 0 -38.58793 -17.276398 -38.58793 -38.58792l0 0l0 -57.881897l0 0z" fill-rule="evenodd"/><path fill="#f5efff" d="m42.597115 187.4672l0 0c0 -2.1482544 1.7415047 -3.8897705 3.8897629 -3.8897705l242.83466 0c1.0316162 0 2.020996 0.40982056 2.7504578 1.1392975c0.7294922 0.72946167 1.1392822 1.7188416 1.1392822 2.750473l0 15.5590515c0 2.1482544 -1.7414856 3.8897705 -3.88974 3.8897705l-242.83466 0l0 0c-2.1482582 0 -3.8897629 -1.7415161 -3.8897629 -3.8897705z" fill-rule="evenodd"/><path fill="#f5efff" d="m42.597115 146.75328l0 0c0 -2.1482544 1.7415047 -3.8897705 3.8897629 -3.8897705l242.83466 0c1.0316162 0 2.020996 0.40982056 2.7504578 1.1392975c0.7294922 0.72946167 1.1392822 1.7188416 1.1392822 2.750473l0 15.5590515c0 2.1482544 -1.7414856 3.8897705 -3.88974 3.8897705l-242.83466 0l0 0c-2.1482582 0 -3.8897629 -1.7415161 -3.8897629 -3.8897705z" fill-rule="evenodd"/><path fill="#f5efff" d="m42.597115 268.89502l0 0c0 -2.1482544 1.7415047 -3.8897705 3.8897629 -3.8897705l242.83466 0c1.0316162 0 2.020996 0.40982056 2.7504578 1.1392822c0.7294922 0.72946167 1.1392822 1.7188416 1.1392822 2.7504883l0 15.5590515c0 2.1482544 -1.7414856 3.8897705 -3.88974 3.8897705l-242.83466 0l0 0c-2.1482582 0 -3.8897629 -1.7415161 -3.8897629 -3.8897705z" fill-rule="evenodd"/><path fill="#f5efff" d="m42.597115 228.1811l0 0c0 -2.1482544 1.7415047 -3.8897705 3.8897629 -3.8897705l242.83466 0c1.0316162 0 2.020996 0.40982056 2.7504578 1.1392822c0.7294922 0.7294769 1.1392822 1.7188568 1.1392822 2.7504883l0 15.5590515c0 2.1482544 -1.7414856 3.8897705 -3.88974 3.8897705l-242.83466 0l0 0c-2.1482582 0 -3.8897629 -1.7415161 -3.8897629 -3.8897705z" fill-rule="evenodd"/></g></svg>