<svg version="1.1" viewBox="0.0 0.0 377.9527559055118 377.9527559055118" fill="none" stroke="none" stroke-linecap="square" stroke-miterlimit="10" xmlns:xlink="http://www.w3.org/1999/xlink" xmlns="http://www.w3.org/2000/svg"><clipPath id="p.0"><path d="m0 0l377.95276 0l0 377.95276l-377.95276 0l0 -377.95276z" clip-rule="nonzero"/></clipPath><g clip-path="url(#p.0)"><path fill="#000000" fill-opacity="0.0" d="m0 0l377.95276 0l0 377.95276l-377.95276 0z" fill-rule="evenodd"/><path fill="#bc8cff" d="m90.334656 318.71127l229.29135 0l0 -264.8391l-38.216003 -38.21599l-191.07535 0z" fill-rule="evenodd"/><path fill="#966fcb" d="m281.41 15.656168l7.6431885 30.57279l30.572815 7.643196z" fill-rule="evenodd"/><path fill="#000000" fill-opacity="0.0" d="m281.41 15.656168l7.6431885 30.57279l30.572815 7.643196l-38.216003 -38.21599l-191.07535 0l0 303.0551l229.29135 0l0 -264.8391" fill-rule="evenodd"/><path fill="#8f3fff" d="m78.75985 340.50394l229.29132 0l0 -264.83914l-38.215973 -38.215984l-191.07535 0z" fill-rule="evenodd"/><path fill="#7232cb" d="m269.8352 37.44882l7.6431885 30.572788l30.572784 7.643196z" fill-rule="evenodd"/><path fill="#000000" fill-opacity="0.0" d="m269.8352 37.44882l7.6431885 30.572788l30.572784 7.643196l-38.215973 -38.215984l-191.07535 0l0 303.0551l229.29132 0l0 -264.83914" fill-rule="evenodd"/><path fill="#7e22ff" d="m58.32678 362.2966l229.29135 0l0 -264.83914l-38.216003 -38.21599l-191.07535 0z" fill-rule="evenodd"/><path fill="#641bcb" d="m249.40213 59.24147l7.6431885 30.572792l30.572815 7.643196z" fill-rule="evenodd"/><path fill="#000000" fill-opacity="0.0" d="m249.40213 59.24147l7.6431885 30.572792l30.572815 7.643196l-38.216003 -38.21599l-191.07535 0l0 303.0551l229.29135 0l0 -264.83914" fill-rule="evenodd"/><path fill="#f5efff" d="m87.997375 269.56174l0 0c0 -1.8177795 1.4736099 -3.2913818 3.2914047 -3.2913818l163.36993 0c0.87294006 0 1.7101135 0.34677124 2.3273926 0.9640198c0.61724854 0.61724854 0.9640198 1.4544373 0.9640198 2.327362l0 13.165222c0 1.81781 -1.4736023 3.2914124 -3.2914124 3.2914124l-163.36993 0l0 0c-1.8177948 0 -3.2914047 -1.4736023 -3.2914047 -3.2914124z" fill-rule="evenodd"/><path fill="#f5efff" d="m87.997375 236.87408l0 0c0 -1.8177948 1.4736099 -3.2914124 3.2914047 -3.2914124l163.36993 0c0.87294006 0 1.7101135 0.34677124 2.3273926 0.96403503c0.61724854 0.6172638 0.9640198 1.4544373 0.9640198 2.3273773l0 13.165222c0 1.8177948 -1.4736023 3.291397 -3.2914124 3.291397l-163.36993 0l0 0c-1.8177948 0 -3.2914047 -1.4736023 -3.2914047 -3.291397z" fill-rule="evenodd"/><path fill="#f5efff" d="m87.997375 204.18642l0 0c0 -1.8177948 1.4736099 -3.291397 3.2914047 -3.291397l163.36993 0c0.87294006 0 1.7101135 0.34677124 2.3273926 0.9640198c0.61724854 0.6172638 0.9640198 1.4544373 0.9640198 2.3273773l0 13.165222c0 1.8177948 -1.4736023 3.2914124 -3.2914124 3.2914124l-163.36993 0l0 0c-1.8177948 0 -3.2914047 -1.4736176 -3.2914047 -3.2914124z" fill-rule="evenodd"/><path fill="#f5efff" d="m87.997375 171.49875l0 0c0 -1.8177948 1.4736099 -3.291397 3.2914047 -3.291397l163.36993 0c0.87294006 0 1.7101135 0.34677124 2.3273926 0.96403503c0.61724854 0.61724854 0.9640198 1.4544373 0.9640198 2.327362l0 13.165222c0 1.8177948 -1.4736023 3.2914124 -3.2914124 3.2914124l-163.36993 0l0 0c-1.8177948 0 -3.2914047 -1.4736176 -3.2914047 -3.2914124z" fill-rule="evenodd"/><path fill="#f5efff" d="m87.997375 138.8111l0 0c0 -1.8177948 1.4736099 -3.2914124 3.2914047 -3.2914124l163.36993 0c0.87294006 0 1.7101135 0.34677124 2.3273926 0.96403503c0.61724854 0.61724854 0.9640198 1.4544373 0.9640198 2.3273773l0 13.165222c0 1.8177795 -1.4736023 3.291397 -3.2914124 3.291397l-163.36993 0l0 0c-1.8177948 0 -3.2914047 -1.4736176 -3.2914047 -3.291397z" fill-rule="evenodd"/></g></svg>