<?xml version="1.0" encoding="UTF-8" standalone="no"?>
<!-- Created with Inkscape (http://www.inkscape.org/) -->

<svg
   width="150"
   height="150"
   viewBox="0 0 39.6875 39.6875"
   version="1.1"
   id="svg1"
   inkscape:version="1.4 (e7c3feb100, 2024-10-09)"
   sodipodi:docname="playbutton.svg"
   xml:space="preserve"
   xmlns:inkscape="http://www.inkscape.org/namespaces/inkscape"
   xmlns:sodipodi="http://sodipodi.sourceforge.net/DTD/sodipodi-0.dtd"
   xmlns="http://www.w3.org/2000/svg"
   xmlns:svg="http://www.w3.org/2000/svg"><sodipodi:namedview
     id="namedview1"
     pagecolor="#ffffff"
     bordercolor="#000000"
     borderopacity="0.25"
     inkscape:showpageshadow="2"
     inkscape:pageopacity="0.0"
     inkscape:pagecheckerboard="0"
     inkscape:deskcolor="#d1d1d1"
     inkscape:document-units="mm"
     inkscape:zoom="1.872105"
     inkscape:cx="4.0061856"
     inkscape:cy="81.192029"
     inkscape:window-width="1920"
     inkscape:window-height="1011"
     inkscape:window-x="0"
     inkscape:window-y="0"
     inkscape:window-maximized="1"
     inkscape:current-layer="layer1" /><defs
     id="defs1" /><g
     inkscape:label="Layer 1"
     inkscape:groupmode="layer"
     id="layer1"><path
       sodipodi:type="star"
       style="fill:#00d88a;stroke:#ffffff;stroke-width:0;stroke-dasharray:none;fill-opacity:1"
       id="path1"
       inkscape:flatsided="true"
       sodipodi:sides="8"
       sodipodi:cx="0"
       sodipodi:cy="0"
       sodipodi:r1="37.417732"
       sodipodi:r2="34.569477"
       sodipodi:arg1="0.78539816"
       sodipodi:arg2="1.1780972"
       inkscape:rounded="0"
       inkscape:randomized="0"
       d="M 26.458332,26.458332 1.2712481e-7,37.417732 -26.458332,26.458332 -37.417732,1.2712482e-7 -26.458332,-26.458332 -1.2712483e-7,-37.417732 26.458332,-26.458332 37.417732,-1.2712483e-7 Z"
       transform="matrix(0.53033011,0,0,0.53033011,19.84375,19.84375)" /><g
       id="g1"
       transform="translate(-1.5171245e-6,1.7618893)"><path
         d="m 14.567183,19.079797 q -1.086097,0 -1.855415,-0.778369 -0.76932,-0.77837 -0.805522,-1.882569 0,-0.162912 0.01806,-0.32583 0.01806,-0.162912 0.0543,-0.325828 l 1.520535,-6.0821414 q 0.253412,-0.977488 1.031788,-1.58389 0.778373,-0.606406 1.773961,-0.606406 h 7.059626 q 0.995589,0 1.773957,0.606406 0.77837,0.606402 1.031795,1.58389 l 1.520535,6.0821414 q 0.0362,0.16291 0.06335,0.33488 0.0271,0.17197 0.0271,0.33488 0,1.104197 -0.787422,1.873516 -0.78742,0.76932 -1.891619,0.76932 -0.760266,0 -1.411924,-0.398237 -0.651652,-0.398236 -0.977483,-1.086096 L 22.205961,16.54557 q -0.0905,-0.181027 -0.271528,-0.271527 -0.181027,-0.0905 -0.380136,-0.0905 h -3.439304 q -0.199116,0 -0.380132,0.0905 -0.181027,0.0905 -0.271528,0.271527 l -0.506844,1.049894 q -0.325831,0.68786 -0.977488,1.086096 -0.651657,0.398237 -1.411925,0.398237 z m 0.0543,-1.44813 q 0.343931,0 0.624506,-0.181029 0.280578,-0.181026 0.425389,-0.488743 l 0.506846,-1.03179 q 0.271528,-0.56115 0.79647,-0.877929 0.524947,-0.316777 1.140402,-0.316777 h 3.439306 q 0.615455,0 1.140402,0.325828 0.524945,0.32583 0.814572,0.868878 l 0.506844,1.03179 q 0.144822,0.307727 0.425389,0.488743 0.280574,0.181029 0.624506,0.181029 0.506844,0 0.868876,-0.334881 0.362034,-0.33488 0.380134,-0.841724 0,0.01806 -0.0362,-0.343931 L 24.75839,10.047093 Q 24.631681,9.5583486 24.251546,9.2506216 23.871411,8.9428936 23.364567,8.9428936 h -7.059625 q -0.506846,0 -0.89603,0.307728 -0.389185,0.307727 -0.497794,0.7964714 l -1.520535,6.064038 q -0.0362,0.108612 -0.0362,0.32583 0,0.506844 0.371084,0.850775 0.371082,0.343931 0.896028,0.343931 z m 6.299361,-5.068451 q 0.307728,0 0.515897,-0.208174 0.208175,-0.208175 0.208175,-0.515897 0,-0.307728 -0.208175,-0.515897 -0.208175,-0.208174 -0.515897,-0.208174 -0.307727,0 -0.515894,0.208174 -0.208175,0.208175 -0.208175,0.515897 0,0.307728 0.208175,0.515897 0.208175,0.208174 0.515894,0.208174 z m 1.44813,-1.448129 q 0.307727,0 0.515897,-0.208175 0.208175,-0.208175 0.208175,-0.515897 0,-0.307728 -0.208175,-0.5158944 -0.208175,-0.208175 -0.515897,-0.208175 -0.307728,0 -0.515896,0.208175 -0.208175,0.2081744 -0.208175,0.5158944 0,0.307728 0.208175,0.515897 0.208174,0.208175 0.515896,0.208175 z m 0,2.896257 q 0.307727,0 0.515897,-0.208174 0.208175,-0.208176 0.208175,-0.515895 0,-0.307728 -0.208175,-0.515897 -0.208175,-0.208174 -0.515897,-0.208174 -0.307728,0 -0.515896,0.208174 -0.208175,0.208175 -0.208175,0.515897 0,0.307727 0.208175,0.515895 0.208174,0.208174 0.515896,0.208174 z m 1.44813,-1.448128 q 0.307727,0 0.515894,-0.208174 0.208175,-0.208175 0.208175,-0.515897 0,-0.307728 -0.208175,-0.515897 -0.208174,-0.208174 -0.515894,-0.208174 -0.307728,0 -0.515896,0.208174 -0.208176,0.208175 -0.208176,0.515897 0,0.307728 0.208176,0.515897 0.208174,0.208174 0.515896,0.208174 z m -6.51658,1.086098 q 0.235322,0 0.389182,-0.153854 0.153854,-0.153852 0.153854,-0.389186 v -0.724063 h 0.724067 q 0.235321,0 0.389182,-0.153853 0.153854,-0.153852 0.153854,-0.389185 0,-0.235323 -0.153854,-0.389184 -0.153853,-0.153852 -0.389182,-0.153852 H 17.84356 v -0.724064 q 0,-0.235322 -0.153854,-0.389186 -0.153852,-0.153853 -0.389182,-0.153853 -0.235322,0 -0.389186,0.153853 -0.153852,0.153852 -0.153852,0.389186 v 0.724064 h -0.724065 q -0.235321,0 -0.389185,0.153852 -0.153853,0.153853 -0.153853,0.389184 0,0.235321 0.153853,0.389185 0.153853,0.153853 0.389185,0.153853 h 0.724065 v 0.724063 q 0,0.235322 0.153852,0.389186 0.153852,0.153854 0.389186,0.153854 z m 2.534225,-0.362034 z"
         id="path1-0"
         style="fill:#ffffff;stroke-width:0.0181016" /><text
         xml:space="preserve"
         style="font-style:normal;font-variant:normal;font-weight:bold;font-stretch:normal;font-size:6.61458px;font-family:'Noto Sans Javanese';-inkscape-font-specification:'Noto Sans Javanese, Bold';font-variant-ligatures:normal;font-variant-caps:normal;font-variant-numeric:normal;font-variant-east-asian:normal;text-align:start;writing-mode:lr-tb;direction:ltr;text-anchor:start;fill:#00ff66;stroke:#2d2d2d;stroke-width:0"
         x="11.055532"
         y="28.197411"
         id="text1"><tspan
           sodipodi:role="line"
           id="tspan1"
           style="font-style:normal;font-variant:normal;font-weight:bold;font-stretch:normal;font-size:6.61458px;font-family:'Noto Sans Javanese';-inkscape-font-specification:'Noto Sans Javanese, Bold';font-variant-ligatures:normal;font-variant-caps:normal;font-variant-numeric:normal;font-variant-east-asian:normal;fill:#ffffff;stroke-width:0"
           x="11.055532"
           y="28.197411">遊ぶ！</tspan></text></g></g></svg>
