<svg version="1.1" viewBox="0.0 0.0 377.9527559055118 377.9527559055118" fill="none" stroke="none" stroke-linecap="square" stroke-miterlimit="10" xmlns:xlink="http://www.w3.org/1999/xlink" xmlns="http://www.w3.org/2000/svg"><clipPath id="p.0"><path d="m0 0l377.95276 0l0 377.95276l-377.95276 0l0 -377.95276z" clip-rule="nonzero"/></clipPath><g clip-path="url(#p.0)"><path fill="#434343" d="m0 0l377.95276 0l0 377.95276l-377.95276 0z" fill-rule="evenodd"/><path fill="#ffffff" d="m23.04987 188.97638l0 0c0 -0.0015563965 0.0012569427 -0.0028076172 0.0028095245 -0.0028076172l337.16254 0.0028076172c7.6293945E-4 0 0.0014648438 2.89917E-4 0.0020141602 8.239746E-4c5.187988E-4 5.187988E-4 7.9345703E-4 0.0012359619 7.9345703E-4 0.0019836426l-0.0028076172 172.21765c0 0.0015563965 -0.0012512207 0.0028076172 -0.0028076172 0.0028076172l-337.16254 -0.0028076172l0 0c-0.0015525818 0 -0.002811432 -0.0012512207 -0.002811432 -0.0028076172z" fill-rule="evenodd"/><path fill="#ffffff" d="m135.76094 65.45696l0 0c0 -5.187988E-4 4.119873E-4 -9.384155E-4 9.3078613E-4 -9.384155E-4l111.7471 9.384155E-4c2.4414062E-4 0 4.8828125E-4 9.1552734E-5 6.5612793E-4 2.670288E-4c1.8310547E-4 1.7547607E-4 2.746582E-4 4.119873E-4 2.746582E-4 6.637573E-4l-9.3078613E-4 134.23529c0 5.187988E-4 -4.119873E-4 9.3078613E-4 -9.3078613E-4 9.3078613E-4l-111.7471 -9.3078613E-4l0 0c-5.187988E-4 0 -9.3078613E-4 -4.119873E-4 -9.3078613E-4 -9.3078613E-4z" fill-rule="evenodd"/><path fill="#ffffff" d="m98.45145 90.92913l93.18111 -90.92913l93.18111 90.92913z" fill-rule="evenodd"/><path fill="#ffffff" d="m38.147278 127.52893l0 0c0 -2.0599365E-4 1.6784668E-4 -3.7384033E-4 3.7765503E-4 -3.7384033E-4l45.22797 3.7384033E-4c9.918213E-5 0 1.9836426E-4 3.8146973E-5 2.670288E-4 1.1444092E-4c6.866455E-5 6.866455E-5 1.0681152E-4 1.6784668E-4 1.0681152E-4 2.670288E-4l-3.7384033E-4 83.87364c0 1.9836426E-4 -1.6784668E-4 3.6621094E-4 -3.7384033E-4 3.6621094E-4l-45.227974 -3.6621094E-4l0 0c-2.0599365E-4 0 -3.7765503E-4 -1.6784668E-4 -3.7765503E-4 -3.8146973E-4z" fill-rule="evenodd"/><path fill="#ffffff" d="m23.04987 143.45166l37.700787 -56.818893l37.70079 56.818893z" fill-rule="evenodd"/><path fill="#ffffff" d="m299.91107 127.52893l0 0c0 -2.0599365E-4 1.5258789E-4 -3.7384033E-4 3.6621094E-4 -3.7384033E-4l45.227966 3.7384033E-4c9.1552734E-5 0 1.8310547E-4 3.8146973E-5 2.746582E-4 1.1444092E-4c6.1035156E-5 6.866455E-5 9.1552734E-5 1.6784668E-4 9.1552734E-5 2.670288E-4l-3.6621094E-4 83.87364c0 1.9836426E-4 -1.8310547E-4 3.6621094E-4 -3.6621094E-4 3.6621094E-4l-45.227966 -3.6621094E-4l0 0c-2.1362305E-4 0 -3.9672852E-4 -1.6784668E-4 -3.9672852E-4 -3.8146973E-4z" fill-rule="evenodd"/><path fill="#ffffff" d="m284.81366 143.45166l37.700775 -56.818893l37.700775 56.818893z" fill-rule="evenodd"/><path fill="#434343" d="m163.5433 132.5748l0 0c0 -13.759277 11.38678 -24.913383 25.433075 -24.913383l0 0c6.74527 0 13.214264 2.6248016 17.983902 7.2969666c4.769623 4.672165 7.449173 11.00898 7.449173 17.616417l0 0c0 13.759293 -11.38678 24.913391 -25.433075 24.913391l0 0c-14.046295 0 -25.433075 -11.1540985 -25.433075 -24.913391z" fill-rule="evenodd"/><path fill="#434343" d="m310.98688 166.21347l0 0c0 -6.2795258 5.161072 -11.370087 11.527557 -11.370087l0 0c3.057312 0 5.98938 1.1979218 8.151215 3.3302307c2.1618347 2.1322937 3.3763428 5.0243225 3.3763428 8.039856l0 0c0 6.2795258 -5.161072 11.370071 -11.527557 11.370071l0 0c-6.3664856 0 -11.527557 -5.0905457 -11.527557 -11.370071z" fill-rule="evenodd"/><path fill="#434343" d="m49.228348 166.21478l0 0c0 -6.2795258 5.161064 -11.370087 11.527557 -11.370087l0 0c3.0573006 0 5.98938 1.1979218 8.151215 3.3302307c2.1618347 2.1322937 3.3763428 5.0243225 3.3763428 8.039856l0 0c0 6.2795258 -5.161064 11.370071 -11.527557 11.370071l0 0c-6.366493 0 -11.527557 -5.0905457 -11.527557 -11.370071z" fill-rule="evenodd"/><path fill="#434343" d="m155.83989 257.0291l0 0c0 -6.589859 5.342148 -11.932007 11.932007 -11.932007l47.726547 0l0 0c3.164566 0 6.199524 1.2571259 8.437195 3.494812c2.2376862 2.237671 3.494812 5.272629 3.494812 8.437195l0 60.01001c0 6.5898743 -5.342148 11.932007 -11.932007 11.932007l-47.726547 0c-6.589859 0 -11.932007 -5.3421326 -11.932007 -11.932007z" fill-rule="evenodd"/><path fill="#434343" d="m52.29659 253.40173l0 0c0 -4.5865173 3.7181091 -8.304626 8.304626 -8.304626l54.981297 0c2.2025223 0 4.3148346 0.8749542 5.872261 2.432373c1.5574188 1.5574188 2.4323654 3.6697388 2.4323654 5.8722534l0 33.21753c0 4.5865173 -3.7181091 8.304626 -8.304626 8.304626l-54.981297 0c-4.5865173 0 -8.304626 -3.7181091 -8.304626 -8.304626z" fill-rule="evenodd"/><path fill="#434343" d="m259.3832 253.40173l0 0c0 -4.5865173 3.7181091 -8.304626 8.304626 -8.304626l54.981293 0c2.2025146 0 4.31485 0.8749542 5.8722534 2.432373c1.5574341 1.5574188 2.432373 3.6697388 2.432373 5.8722534l0 33.21753c0 4.5865173 -3.7181091 8.304626 -8.304626 8.304626l-54.981293 0c-4.5865173 0 -8.304626 -3.7181091 -8.304626 -8.304626z" fill-rule="evenodd"/><path fill="#000000" fill-opacity="0.0" d="m191.63518 245.0971l0 83.87402" fill-rule="evenodd"/><path stroke="#ffffff" stroke-width="4.0" stroke-linejoin="round" stroke-linecap="butt" d="m191.63518 245.0971l0 83.87402" fill-rule="evenodd"/></g></svg>