<svg version="1.1" viewBox="0.0 0.0 377.9527559055118 377.9527559055118" fill="none" stroke="none" stroke-linecap="square" stroke-miterlimit="10" xmlns:xlink="http://www.w3.org/1999/xlink" xmlns="http://www.w3.org/2000/svg"><clipPath id="p.0"><path d="m0 0l377.95276 0l0 377.95276l-377.95276 0l0 -377.95276z" clip-rule="nonzero"/></clipPath><g clip-path="url(#p.0)"><path fill="#3000ff" d="m0 0l377.95276 0l0 377.95276l-377.95276 0z" fill-rule="evenodd"/><path fill="#ffffff" d="m20.393702 197.00035l0 0c0 -0.0015563965 0.0012569427 -0.0028076172 0.0028095245 -0.0028076172l337.16254 0.0028076172c7.6293945E-4 0 0.0014648438 2.89917E-4 0.0019836426 8.239746E-4c5.187988E-4 5.340576E-4 8.239746E-4 0.0012359619 8.239746E-4 0.0019836426l-0.0028076172 164.91057c0 0.0015563965 -0.0012512207 0.0028076172 -0.0028076172 0.0028076172l-337.16254 -0.0028076172l0 0c-0.0015525818 0 -0.0028095245 -0.0012512207 -0.0028095245 -0.0028076172z" fill-rule="evenodd"/><path fill="#ffffff" d="m133.10477 78.719124l0 0c0 -5.1116943E-4 4.272461E-4 -9.3078613E-4 9.3078613E-4 -9.3078613E-4l111.7471 9.3078613E-4c2.593994E-4 0 4.8828125E-4 9.918213E-5 6.713867E-4 2.746582E-4c1.6784668E-4 1.7547607E-4 2.593994E-4 4.119873E-4 2.593994E-4 6.637573E-4l-9.3078613E-4 128.5345c0 5.187988E-4 -4.119873E-4 9.3078613E-4 -9.3078613E-4 9.3078613E-4l-111.7471 -9.3078613E-4l0 0c-5.0354004E-4 0 -9.3078613E-4 -4.119873E-4 -9.3078613E-4 -9.3078613E-4z" fill-rule="evenodd"/><path fill="#ffffff" d="m95.79527 103.12467l93.18111 -87.08662l93.18109 87.08662z" fill-rule="evenodd"/><path fill="#ffffff" d="m35.49111 138.15877l0 0c0 -2.1362305E-4 1.6784668E-4 -3.8146973E-4 3.7384033E-4 -3.8146973E-4l45.227974 3.8146973E-4c9.918213E-5 0 1.9073486E-4 3.0517578E-5 2.670288E-4 1.0681152E-4c6.866455E-5 6.1035156E-5 1.0681152E-4 1.6784668E-4 1.0681152E-4 2.593994E-4l-3.7384033E-4 80.31459c0 1.9836426E-4 -1.6784668E-4 3.8146973E-4 -3.8146973E-4 3.8146973E-4l-45.227966 -3.8146973E-4l0 0c-2.0980835E-4 0 -3.7765503E-4 -1.6784668E-4 -3.7765503E-4 -3.8146973E-4z" fill-rule="evenodd"/><path fill="#ffffff" d="m20.393702 153.39062l37.70079 -54.393707l37.700783 54.393707z" fill-rule="evenodd"/><path fill="#ffffff" d="m297.25488 138.15877l0 0c0 -2.1362305E-4 1.8310547E-4 -3.8146973E-4 3.9672852E-4 -3.8146973E-4l45.227966 3.8146973E-4c9.1552734E-5 0 1.8310547E-4 3.0517578E-5 2.4414062E-4 1.0681152E-4c9.1552734E-5 6.1035156E-5 1.2207031E-4 1.6784668E-4 1.2207031E-4 2.593994E-4l-3.6621094E-4 80.31459c0 1.9836426E-4 -1.8310547E-4 3.8146973E-4 -3.9672852E-4 3.8146973E-4l-45.227966 -3.8146973E-4l0 0c-2.1362305E-4 0 -3.6621094E-4 -1.6784668E-4 -3.6621094E-4 -3.8146973E-4z" fill-rule="evenodd"/><path fill="#ffffff" d="m282.15747 153.39062l37.700806 -54.393707l37.700775 54.393707z" fill-rule="evenodd"/><path fill="#3000ff" d="m160.88715 142.99205l0 0c0 -13.176559 11.386765 -23.858269 25.43306 -23.858269l0 0c6.74527 0 13.214279 2.5136337 17.983902 6.9879303c4.769623 4.4742966 7.449173 10.542732 7.449173 16.870338l0 0c0 13.176559 -11.38678 23.858276 -25.433075 23.858276l0 0c-14.046295 0 -25.43306 -10.681717 -25.43306 -23.858276z" fill-rule="evenodd"/><path fill="#3000ff" d="m308.33072 175.19676l0 0c0 -6.009903 5.1610413 -10.881897 11.527557 -10.881897l0 0c3.0572815 0 5.98938 1.1464844 8.151215 3.1872406c2.1618347 2.040741 3.3763428 4.8085938 3.3763428 7.6946564l0 0c0 6.009903 -5.161072 10.881882 -11.527557 10.881882l0 0c-6.366516 0 -11.527557 -4.8719788 -11.527557 -10.881882z" fill-rule="evenodd"/><path fill="#3000ff" d="m46.572178 175.19801l0 0c0 -6.009903 5.161064 -10.881882 11.527561 -10.881882l0 0c3.0572968 0 5.98938 1.1464844 8.151215 3.1872253c2.1618347 2.0407562 3.3763428 4.808609 3.3763428 7.6946564l0 0c0 6.009903 -5.161064 10.881897 -11.527557 10.881897l0 0c-6.366497 0 -11.527561 -4.871994 -11.527561 -10.881897z" fill-rule="evenodd"/><path fill="#3000ff" d="m153.18373 262.67313l0 0c0 -6.5898743 5.3421326 -11.932007 11.931992 -11.932007l47.726562 0l0 0c3.1645508 0 6.1995087 1.2571259 8.437195 3.494812c2.2376862 2.237671 3.4947968 5.272644 3.4947968 8.437195l0 56.45096c0 6.5898743 -5.3421326 11.932007 -11.931992 11.932007l-47.726562 0c-6.589859 0 -11.931992 -5.3421326 -11.931992 -11.932007z" fill-rule="evenodd"/><path fill="#3000ff" d="m49.64042 258.69403l0 0c0 -4.3922577 3.5606422 -7.9529114 7.952915 -7.9529114l55.68472 0c2.1092453 0 4.132103 0.8379059 5.6235657 2.329361c1.4914551 1.4914551 2.3293533 3.514328 2.3293533 5.6235504l0 31.81073c0 4.392273 -3.560646 7.9529114 -7.952919 7.9529114l-55.68472 0c-4.392273 0 -7.952915 -3.5606384 -7.952915 -7.9529114z" fill-rule="evenodd"/><path fill="#3000ff" d="m256.72702 258.69403l0 0c0 -4.3922577 3.560669 -7.9529114 7.952942 -7.9529114l55.684723 0c2.1092224 0 4.13208 0.8379059 5.623535 2.329361c1.4914856 1.4914551 2.3293762 3.514328 2.3293762 5.6235504l0 31.81073c0 4.392273 -3.5606384 7.9529114 -7.9529114 7.9529114l-55.684723 0c-4.392273 0 -7.952942 -3.5606384 -7.952942 -7.9529114z" fill-rule="evenodd"/><path fill="#000000" fill-opacity="0.0" d="m188.979 250.74112l0 80.31497" fill-rule="evenodd"/><path stroke="#ffffff" stroke-width="4.0" stroke-linejoin="round" stroke-linecap="butt" d="m188.979 250.74112l0 80.31497" fill-rule="evenodd"/></g></svg>