<svg version="1.1" viewBox="0.0 0.0 377.9527559055118 377.9527559055118" fill="none" stroke="none" stroke-linecap="square" stroke-miterlimit="10" xmlns:xlink="http://www.w3.org/1999/xlink" xmlns="http://www.w3.org/2000/svg"><clipPath id="p.0"><path d="m0 0l377.95276 0l0 377.95276l-377.95276 0l0 -377.95276z" clip-rule="nonzero"/></clipPath><g clip-path="url(#p.0)"><path fill="#0384fc" d="m0 0l377.95276 0l0 377.95276l-377.95276 0z" fill-rule="evenodd"/><path fill="#47a7ff" d="m37.391075 92.29265l0 0c0 -43.921856 35.605705 -79.52756 79.52756 -79.52756l83.62205 0l0 0c21.092026 0 41.320175 8.378772 56.234467 23.293083c14.914337 14.91431 23.29309 35.142456 23.29309 56.234474l0 0l0 0c0 43.92186 -35.605698 79.52756 -79.52756 79.52756l-83.62205 0c-43.921852 0 -79.52756 -35.605698 -79.52756 -79.52756z" fill-rule="evenodd"/><path fill="#47a7ff" d="m340.55905 162.68636l-129.82677 -70.39371l129.82677 -70.3937z" fill-rule="evenodd"/><path fill="#47a7ff" d="m37.391075 285.6601l0 0c0 -43.921844 35.605705 -79.52754 79.52756 -79.52754l83.62205 0l0 0c21.092026 0 41.320175 8.378769 56.234467 23.293076c14.914337 14.914307 23.29309 35.142456 23.29309 56.234467l0 0l0 0c0 43.921875 -35.605698 79.52756 -79.52756 79.52756l-83.62205 0c-43.921852 0 -79.52756 -35.605682 -79.52756 -79.52756z" fill-rule="evenodd"/><path fill="#47a7ff" d="m340.55905 356.0538l-129.82677 -70.39371l129.82677 -70.39369z" fill-rule="evenodd"/><path fill="#acd7ff" d="m37.392387 188.76772l0 0c0 -43.92186 35.605705 -79.52756 79.52756 -79.52756l83.62205 0l0 0c21.092026 0 41.320175 8.378769 56.234467 23.293076c14.914337 14.914322 23.29309 35.142456 23.29309 56.23448l0 0l0 0c0 43.92186 -35.605698 79.52757 -79.52756 79.52757l-83.62205 0c-43.921852 0 -79.52756 -35.605713 -79.52756 -79.52757z" fill-rule="evenodd"/><path fill="#acd7ff" d="m340.56036 259.1614l-129.82677 -70.39369l129.82677 -70.3937z" fill-rule="evenodd"/></g></svg>