<svg version="1.1" viewBox="0.0 0.0 377.9527559055118 377.9527559055118" fill="none" stroke="none" stroke-linecap="square" stroke-miterlimit="10" xmlns:xlink="http://www.w3.org/1999/xlink" xmlns="http://www.w3.org/2000/svg"><clipPath id="p.0"><path d="m0 0l377.95276 0l0 377.95276l-377.95276 0l0 -377.95276z" clip-rule="nonzero"/></clipPath><g clip-path="url(#p.0)"><path fill="#000000" d="m0 0l377.95276 0l0 377.95276l-377.95276 0z" fill-rule="evenodd"/><path fill="#000000" fill-opacity="0.0" d="m46.897636 96.81982l0 0c0 -25.44909 20.63057 -46.07966 46.079666 -46.07966l191.99817 0l0 0c12.221069 0 23.94162 4.854809 32.58322 13.496422c8.641632 8.641609 13.496429 20.362152 13.496429 32.583237l0 184.31311c0 25.449097 -20.630554 46.07965 -46.07965 46.07965l-191.99817 0l0 0c-25.449097 0 -46.079666 -20.630554 -46.079666 -46.07965z" fill-rule="evenodd"/><path stroke="#00ffa2" stroke-width="8.0" stroke-linejoin="round" stroke-linecap="butt" d="m46.897636 96.81982l0 0c0 -25.44909 20.63057 -46.07966 46.079666 -46.07966l191.99817 0l0 0c12.221069 0 23.94162 4.854809 32.58322 13.496422c8.641632 8.641609 13.496429 20.362152 13.496429 32.583237l0 184.31311c0 25.449097 -20.630554 46.07965 -46.07965 46.07965l-191.99817 0l0 0c-25.449097 0 -46.079666 -20.630554 -46.079666 -46.07965z" fill-rule="evenodd"/><path fill="#000000" fill-opacity="0.0" d="m98.11024 129.26044l0 0c0 -16.490593 13.368271 -29.858864 29.858864 -29.858864l122.01456 0l0 0c7.919052 0 15.513779 3.1458359 21.113388 8.7454605c5.59964 5.5996246 8.745483 13.194344 8.745483 21.113403l0 119.431885c0 16.4906 -13.368286 29.858856 -29.858871 29.858856l-122.01456 0c-16.490593 0 -29.858864 -13.368256 -29.858864 -29.858856z" fill-rule="evenodd"/><path stroke="#00ffa2" stroke-width="8.0" stroke-linejoin="round" stroke-linecap="butt" d="m98.11024 129.26044l0 0c0 -16.490593 13.368271 -29.858864 29.858864 -29.858864l122.01456 0l0 0c7.919052 0 15.513779 3.1458359 21.113388 8.7454605c5.59964 5.5996246 8.745483 13.194344 8.745483 21.113403l0 119.431885c0 16.4906 -13.368286 29.858856 -29.858871 29.858856l-122.01456 0c-16.490593 0 -29.858864 -13.368256 -29.858864 -29.858856z" fill-rule="evenodd"/></g></svg>