<svg version="1.1" viewBox="0.0 0.0 377.9527559055118 377.9527559055118" fill="none" stroke="none" stroke-linecap="square" stroke-miterlimit="10" xmlns:xlink="http://www.w3.org/1999/xlink" xmlns="http://www.w3.org/2000/svg"><clipPath id="p.0"><path d="m0 0l377.95276 0l0 377.95276l-377.95276 0l0 -377.95276z" clip-rule="nonzero"/></clipPath><g clip-path="url(#p.0)"><path fill="#6000ff" d="m0 0l377.95276 0l0 377.95276l-377.95276 0z" fill-rule="evenodd"/><path fill="#ffffff" d="m115.51832 127.79886l146.92914 0l0 148.28348l-146.92914 0z" fill-rule="evenodd"/><path fill="#ffffff" d="m167.01437 38.54331l43.93701 0l0 0c13.657608 0 26.755829 5.425461 36.413223 15.082848c9.657394 9.657383 15.08284 22.755611 15.08284 36.41321l0 51.496063c0 6.713867E-4 -5.493164E-4 0.0012207031 -0.0012207031 0.0012207031l-146.92792 -0.0012207031l0 0c-6.790161E-4 0 -0.0012283325 -5.493164E-4 -0.0012283325 -0.0012207031l0.0012283325 -51.494843l0 0c0 -28.440487 23.055565 -51.49606 51.496056 -51.49606z" fill-rule="evenodd"/><path fill="#ffffff" d="m227.92316 275.7875l0 -148.28345l115.30707 148.28345z" fill-rule="evenodd"/><path fill="#ffffff" d="m150.0296 276.08212l0 -148.28348l-115.30708 148.28348z" fill-rule="evenodd"/><path fill="#ffffff" d="m115.51832 283.8905l146.92914 0l0 33.007874l-146.92914 0z" fill-rule="evenodd"/><path fill="#ffffff" d="m115.51832 324.6999l146.92914 0l0 14.708649l-146.92914 0z" fill-rule="evenodd"/></g></svg>