<svg version="1.1" viewBox="0.0 0.0 377.9527559055118 377.9527559055118" fill="none" stroke="none" stroke-linecap="square" stroke-miterlimit="10" xmlns:xlink="http://www.w3.org/1999/xlink" xmlns="http://www.w3.org/2000/svg"><clipPath id="p.0"><path d="m0 0l377.95276 0l0 377.95276l-377.95276 0l0 -377.95276z" clip-rule="nonzero"/></clipPath><g clip-path="url(#p.0)"><path fill="#fc036f" d="m0 0l377.95276 0l0 377.95276l-377.95276 0z" fill-rule="evenodd"/><path fill="#ffffff" d="m208.44357 275.46457l0 0c0 -39.34703 31.939362 -71.244095 71.33859 -71.244095l0 0c18.920166 0 37.0654 7.5060577 50.44397 20.866913c13.378601 13.360855 20.894592 31.48207 20.894592 50.377182l0 0c0 39.347015 -31.939362 71.24408 -71.33856 71.24408l0 0c-39.39923 0 -71.33859 -31.897064 -71.33859 -71.24408z" fill-rule="evenodd"/><path fill="#ffffff" d="m26.832022 346.70865l71.33858 -142.48817l71.338585 142.48817z" fill-rule="evenodd"/><path fill="#ffffff" d="m26.832022 102.48819l0 0c0 -39.347027 31.939371 -71.244095 71.33858 -71.244095l0 0c18.920174 0 37.065422 7.506054 50.443993 20.866913c13.378586 13.360855 20.894592 31.48207 20.894592 50.377182l0 0c0 39.34703 -31.939377 71.244095 -71.338585 71.244095l0 0c-39.399208 0 -71.33858 -31.897064 -71.33858 -71.244095z" fill-rule="evenodd"/><path fill="#ffffff" d="m208.44357 173.73228l71.33859 -142.48819l71.33856 142.48819z" fill-rule="evenodd"/></g></svg>