<svg version="1.1" viewBox="0.0 0.0 377.9527559055118 377.9527559055118" fill="none" stroke="none" stroke-linecap="square" stroke-miterlimit="10" xmlns:xlink="http://www.w3.org/1999/xlink" xmlns="http://www.w3.org/2000/svg"><clipPath id="p.0"><path d="m0 0l377.95276 0l0 377.95276l-377.95276 0l0 -377.95276z" clip-rule="nonzero"/></clipPath><g clip-path="url(#p.0)"><path fill="#000000" fill-opacity="0.0" d="m0 0l377.95276 0l0 377.95276l-377.95276 0z" fill-rule="evenodd"/><path fill="#1aff97" d="m-0.002624672 0.0131233595l377.95276 0l0 377.95276l-377.95276 0z" fill-rule="evenodd"/><path fill="#000000" d="m49.200787 114.88976l0 0c0 -32.789185 27.180195 -59.37008 60.70866 -59.37008l0 0c16.100937 0 31.542427 6.255047 42.927513 17.389091c11.385071 11.134056 17.781143 26.235062 17.781143 41.980988l0 0c0 32.789192 -27.180191 59.37008 -60.708656 59.37008l0 0c-33.528465 0 -60.70866 -26.580887 -60.70866 -59.37008z" fill-rule="evenodd"/><path fill="#ffffff" d="m49.200787 263.063l0 0c0 -32.789185 27.180195 -59.37007 60.70866 -59.37007l0 0c16.100937 0 31.542427 6.2550354 42.927513 17.389084c11.385071 11.134048 17.781143 26.235062 17.781143 41.980988l0 0c0 32.789185 -27.180191 59.370087 -60.708656 59.370087l0 0c-33.528465 0 -60.70866 -26.580902 -60.70866 -59.370087z" fill-rule="evenodd"/><path fill="#ffffff" d="m207.33464 114.88976l0 0c0 -32.789185 27.180206 -59.37008 60.708664 -59.37008l0 0c16.100952 0 31.54242 6.255047 42.92752 17.389091c11.385071 11.134056 17.781158 26.235062 17.781158 41.980988l0 0c0 32.789192 -27.180206 59.37008 -60.70868 59.37008l0 0c-33.528458 0 -60.708664 -26.580887 -60.708664 -59.37008z" fill-rule="evenodd"/><path fill="#000000" d="m207.33464 263.063l0 0c0 -32.789185 27.180206 -59.37007 60.708664 -59.37007l0 0c16.100952 0 31.54242 6.2550354 42.92752 17.389084c11.385071 11.134048 17.781158 26.235062 17.781158 41.980988l0 0c0 32.789185 -27.180206 59.370087 -60.70868 59.370087l0 0c-33.528458 0 -60.708664 -26.580902 -60.708664 -59.370087z" fill-rule="evenodd"/></g></svg>