<svg version="1.1" viewBox="0.0 0.0 377.9527559055118 377.9527559055118" fill="none" stroke="none" stroke-linecap="square" stroke-miterlimit="10" xmlns:xlink="http://www.w3.org/1999/xlink" xmlns="http://www.w3.org/2000/svg"><clipPath id="p.0"><path d="m0 0l377.95276 0l0 377.95276l-377.95276 0l0 -377.95276z" clip-rule="nonzero"/></clipPath><g clip-path="url(#p.0)"><path fill="#00ff87" d="m0 0l377.95276 0l0 377.95276l-377.95276 0z" fill-rule="evenodd"/><path fill="#ffffff" d="m18.897638 188.97638l0 0c0 -93.93189 76.14685 -170.07874 170.07874 -170.07874l0 0c45.10768 0 88.36789 17.918959 120.263824 49.81491c31.895966 31.89595 49.81491 75.15615 49.81491 120.26383l0 0c0 93.931885 -76.14685 170.07874 -170.07874 170.07874l0 0c-93.93189 0 -170.07874 -76.14685 -170.07874 -170.07874z" fill-rule="evenodd"/><path fill="#000000" d="m127.05525 175.28804l61.921127 -44.295914l61.921127 44.295914l-23.651764 71.6723l-76.53873 0z" fill-rule="evenodd"/><path fill="#000000" d="m120.63104 290.23233l-75.5072 -9.906158l5.5020027 9.110596l6.7961273 9.158264l8.1121025 8.612244l7.5317154 6.809662l7.5074844 7.4032593l6.949028 5.004883l8.245445 5.054779l10.122345 6.9050293l17.848122 8.378326l14.742668 4.699463l13.533524 2.2793274z" fill-rule="evenodd"/><path fill="#000000" d="m271.8572 278.15002l-27.1633 71.14859l10.139069 -3.236969l10.485809 -4.4847717l10.260162 -5.891632l8.372101 -5.745514l8.943848 -5.584137l6.4813232 -5.597687l6.8308105 -6.847168l9.066223 -8.243347l12.292664 -15.416473l7.993408 -13.249695l5.3586426 -12.635345z" fill-rule="evenodd"/><path fill="#000000" d="m73.10819 146.21053l-4.4757614 -76.01326l-7.913418 7.116913l-7.716732 8.396736l-6.9328423 9.5863495l-5.271557 8.677307l-5.8591156 8.765167l-3.6084766 7.765587l-3.41358 9.04808l-4.877821 11.239288l-4.8713837 19.103333l-1.842226 15.361679l0.30738068 13.718979z" fill-rule="evenodd"/><path fill="#000000" d="m186.49727 65.99843l67.304504 -35.608765l-9.759064 -4.2474613l-10.841904 -3.537531l-11.59903 -2.3307552l-10.082581 -1.196352l-10.406311 -1.6945l-8.562958 -0.061431885l-9.648972 0.64798164l-12.250259 0.22481155l-19.402786 3.493307l-14.741455 4.6970863l-12.354858 5.9714127z" fill-rule="evenodd"/><path fill="#000000" d="m304.41965 150.32738l52.536835 55.114624l1.4396057 -10.545303l0.4624939 -11.394852l-0.90448 -11.796066l-1.5847168 -10.028702l-1.1931763 -10.475479l-2.2646484 -8.258133l-3.242157 -9.110886l-3.5408325 -11.729347l-8.6276245 -17.72638l-8.52124 -12.913376l-9.100037 -10.2705765z" fill-rule="evenodd"/><path fill="#000000" fill-opacity="0.0" d="m67.43044 142.44882l75.874016 41.51181" fill-rule="evenodd"/><path stroke="#000000" stroke-width="4.0" stroke-linejoin="round" stroke-linecap="butt" d="m67.43044 142.44882l75.874016 41.51181" fill-rule="evenodd"/><path fill="#000000" fill-opacity="0.0" d="m188.97638 18.897638l0.15748596 132.12598" fill-rule="evenodd"/><path stroke="#000000" stroke-width="4.0" stroke-linejoin="round" stroke-linecap="butt" d="m188.97638 18.897638l0.15748596 132.12598" fill-rule="evenodd"/><path fill="#000000" fill-opacity="0.0" d="m96.062996 324.98163l73.73228 -109.51181" fill-rule="evenodd"/><path stroke="#000000" stroke-width="4.0" stroke-linejoin="round" stroke-linecap="butt" d="m96.062996 324.98163l73.73228 -109.51181" fill-rule="evenodd"/><path fill="#000000" fill-opacity="0.0" d="m210.59317 231.92651l80.188995 57.984253" fill-rule="evenodd"/><path stroke="#000000" stroke-width="4.0" stroke-linejoin="round" stroke-linecap="butt" d="m210.59317 231.92651l80.188995 57.984253" fill-rule="evenodd"/><path fill="#000000" fill-opacity="0.0" d="m219.18373 190.40683l110.23622 -47.968506" fill-rule="evenodd"/><path stroke="#000000" stroke-width="4.0" stroke-linejoin="round" stroke-linecap="butt" d="m219.18373 190.40683l110.23622 -47.968506" fill-rule="evenodd"/></g></svg>