<svg version="1.1" viewBox="0.0 0.0 377.9527559055118 377.9527559055118" fill="none" stroke="none" stroke-linecap="square" stroke-miterlimit="10" xmlns:xlink="http://www.w3.org/1999/xlink" xmlns="http://www.w3.org/2000/svg"><clipPath id="p.0"><path d="m0 0l377.95276 0l0 377.95276l-377.95276 0l0 -377.95276z" clip-rule="nonzero"/></clipPath><g clip-path="url(#p.0)"><path fill="#000000" fill-opacity="0.0" d="m0 0l377.95276 0l0 377.95276l-377.95276 0z" fill-rule="evenodd"/><path fill="#f3f3f3" d="m166.15251 147.69838l0 0c2.6469574 -2.6469574 6.9385376 -2.6469574 9.585495 0l180.24127 180.24129c1.2711182 1.2711182 1.9852295 2.9951172 1.9852295 4.7927246c0 1.7976379 -0.7141113 3.521637 -1.9852295 4.792755l-19.17041 19.17041c-2.6469421 2.6469727 -6.9385376 2.6469727 -9.58548 0l-180.24129 -180.24127c-2.6469574 -2.6469574 -2.6469574 -6.9385376 0 -9.585495z" fill-rule="evenodd"/><path fill="#da2500" d="m25.27008 25.76884l0 0c41.790993 -41.790997 123.71231 -27.626272 182.97638 31.637794l0 0c59.26407 59.264065 73.4288 141.18538 31.637787 182.97638l0 0c-41.790985 41.791 -123.7123 27.626266 -182.97638 -31.637787l0 0c-59.26407 -59.26407 -73.42879 -141.1854 -31.637794 -182.97638z" fill-rule="evenodd"/><path fill="#ff006a" d="m74.87742 75.37526l0 0c21.386902 -21.386898 64.55793 -12.890884 96.42519 18.97638l0 0c31.867264 31.867264 40.36328 75.0383 18.97638 96.4252l0 0c-21.386902 21.386902 -64.55793 12.890884 -96.42519 -18.97638l0 0c-31.867264 -31.867264 -40.363277 -75.0383 -18.97638 -96.4252z" fill-rule="evenodd"/><path fill="#f3f3f3" d="m318.58878 364.15878l0 0c-1.6757202 -1.6757507 -1.6762085 -4.3931274 -0.0010681152 -6.0694275l38.973145 -39.000397c0.80441284 -0.8049927 1.8955688 -1.2573547 3.0334167 -1.2575378c1.1378479 -2.1362305E-4 2.2291565 0.45178223 3.0338745 1.2565002l12.136353 12.136353c1.6757507 1.6757202 1.6762085 4.393097 0.0010681152 6.0694275l-38.973114 39.000366l0 0c-1.6751709 1.6763306 -4.391571 1.6767883 -6.067322 0.0010681152z" fill-rule="evenodd"/></g></svg>